<?xml version="1.0" encoding="UTF-8"?>
<svg height="600" width="800" xmlns="http://www.w3.org/2000/svg" xmlns:xlink="http://www.w3.org/1999/xlink">
    <g id="Notes" font-family="'LucidaGrande', 'Lucida Grande', sans-serif" font-size="13">
        <rect fill="white" height="600.0" width="800.0" x="0.0" y="0.0" />
        <g font-size="13">
            <text x="18.0" y="176.0">Small</text>
            <text x="18.0" y="376.0">Medium</text>
            <text x="18.0" y="576.0">Large</text>
        </g>
        <g font-size="9">
            <text x="250.0" y="30.0">Ultralight</text>
            <text x="450.0" y="30.0">Regular</text>
            <text x="650.0" y="30.0">Black</text>
            <text id="template-version" fill="#505050" text-anchor="end" x="785.0" y="575.0">Template v.3.0</text>
            <a href="https://wangchujiang.com/#/app">
                <text fill="#505050" text-anchor="end" x="785.0" y="590.0">https://wangchujiang.com/#/app</text>
            </a>
        </g>
    </g>
    <g id="Guides" stroke="rgb(39, 170, 225)" stroke-width="0.5">
        <path id="Capline-S" d="M18,76 l800,0" />
        <path id="H-reference" d="M85,145.755 L87.685,145.755 L113.369,79.287 L114.052,79.287 L114.052,76 L112.148,76 L85,145.755 Z M95.693,121.536 L130.996,121.536 L130.263,119.313 L96.474,119.313 L95.693,121.536 Z M139.15,145.755 L141.787,145.755 L114.638,76 L113.466,76 L113.466,79.287 L139.15,145.755 Z" stroke="none" />
        <path id="Baseline-S" d="M18,146 l800,0" />
        <path id="left-margin-Ultralight-S" d="M221,56 l0,110" />
        <path id="right-margin-Ultralight-S" d="M309,56 l0,110" />
        <path id="left-margin-Regular-S" d="M421,56 l0,110" />
        <path id="right-margin-Regular-S" d="M509,56 l0,110" />
        <path id="left-margin-Black-S" d="M621,56 l0,110" />
        <path id="right-margin-Black-S" d="M709,56 l0,110" />
        <path id="Capline-M" d="M18,276 l800,0" />
        <path id="Baseline-M" d="M18,346 l800,0" />
        <path id="Capline-L" d="M18,476 l800,0" />
        <path id="Baseline-L" d="M18,546 l800,0" />
    </g>
    <g id="Symbols">
        <g id="Ultralight-S">
            <path d="M298.511,96.592 C298.511,96.592 298.624,90.386 297.181,88.83 L298.176,84.169 L295.516,86.946 L295.846,83.615 L293.404,86.831 C293.404,86.831 286.637,81.844 279.648,93.598 C279.648,93.598 278.99,94.858 277.807,96.484 C277.522,96.251 277.278,96.029 277.165,95.817 C276.789,95.116 276.877,93.34 277.269,92.657 C277.897,91.553 278.325,86.539 278.325,86.539 C281.17,86.964 282.857,84.013 282.857,84.013 L284.332,85.067 C285.28,84.013 285.124,81.03 284.857,80.007 C283.366,74.186 277.269,76.422 277.269,76.422 C273.263,78.32 275.794,80.64 275.794,80.64 C274.218,80.319 269.305,80.464 267.154,80.851 C263.049,81.586 254.923,87.496 254.923,87.496 C250.809,90.341 252.179,93.822 252.179,93.822 C252.812,96.348 261.246,102.993 261.246,102.993 C261.271,103.025 261.28,103.061 261.305,103.093 C259.561,102.857 257.94,102.543 257.139,102.145 C257.139,102.145 247.491,100.589 244.164,105.477 C244.164,105.477 233.848,102.593 233.515,116.012 C233.515,116.012 235.178,123.887 231.075,125.441 C231.075,125.441 236.84,127.657 238.948,114.015 C238.948,114.015 238.726,108.469 242.718,107.691 C242.718,107.691 240.502,112.02 242.718,118.785 C242.718,118.785 243.829,122.442 240.834,125.106 C240.834,125.106 238.618,124.885 238.172,131.43 C238.172,131.43 234.732,137.417 236.064,140.077 C236.064,140.077 236.953,141.52 236.51,142.187 C236.51,142.187 234.402,143.186 237.064,145.068 C237.064,145.068 240.172,146.398 239.504,143.849 C239.504,143.849 237.507,137.969 240.169,132.76 C240.169,132.76 248.158,124.222 248.934,122.222 C248.934,122.222 252.041,122.446 252.593,126.549 C252.593,126.549 251.261,132.434 254.034,134.983 C254.034,134.983 255.92,142.965 258.139,142.965 C258.139,142.965 258.03,145.516 261.246,145.516 C261.246,145.516 264.46,145.403 262.687,143.517 C262.687,143.517 256.033,142.524 256.477,130.206 C256.477,130.206 258.361,123.444 258.361,120.338 C258.361,120.338 271.225,124.774 275.995,121.895 C275.995,121.895 276.328,131.984 274.555,137.867 C274.555,137.867 272.89,141.196 275.328,141.97 C275.328,141.97 273.559,145.851 276.111,145.851 C276.111,145.851 279.44,146.629 279.218,144.632 C279.218,144.632 278.327,142.417 277.332,141.753 C277.332,141.753 275.884,138.202 277.997,134.205 C277.997,134.205 281.215,125.665 281.104,122.892 C281.104,122.892 285.983,125.219 288.645,127.997 C288.645,127.997 290.09,131.769 287.537,135.101 C287.537,135.101 285.981,136.433 286.094,137.428 C286.094,137.428 283.319,136.209 283.21,140.088 C283.21,140.088 283.543,143.976 285.759,140.088 C285.759,140.088 290.862,136.544 291.97,130.774 C291.97,130.774 293.078,127.006 289.973,124.785 C289.973,124.785 287.424,120.793 286.092,120.02 C286.092,120.02 290.19,114.806 287.976,110.041 C287.976,110.041 286.092,108.6 287.422,105.714 C287.422,105.714 288.785,103.253 289.597,100.313 C290.493,100.241 291.432,100.143 292.388,100.026 C292.75,100.327 293.153,100.609 293.632,100.826 C293.632,100.826 293.632,104.597 296.738,104.488 C296.738,104.47 300.067,104.355 298.511,96.592 Z M271.524,91.549 L273.159,91.336 C273.159,91.336 273.057,94.923 273.686,95.552 C273.686,95.552 271.653,95.075 271.42,94.392 C271.234,93.86 271.524,91.549 271.524,91.549 Z M270.531,102.912 C269.26,100.037 265.569,96.029 265.569,96.029 C263.354,93.078 267.573,92.87 267.573,92.87 L267.891,96.875 C268.699,99.157 272.591,99.745 274.867,99.886 C273.614,101.087 272.159,102.186 270.531,102.912 Z M290.192,96.71 C290.192,96.71 290.497,97.841 291.377,98.985 C290.862,99.035 290.366,99.083 289.871,99.126 C290.043,98.323 290.172,97.506 290.192,96.71 Z" />
        </g>
        <g id="Regular-S">
            <path d="M498.511,96.592 C498.511,96.592 498.624,90.386 497.181,88.83 L498.176,84.169 L495.516,86.946 L495.846,83.615 L493.404,86.831 C493.404,86.831 486.637,81.844 479.648,93.598 C479.648,93.598 478.99,94.858 477.807,96.484 C477.522,96.251 477.278,96.029 477.165,95.817 C476.789,95.116 476.877,93.34 477.269,92.657 C477.897,91.553 478.325,86.539 478.325,86.539 C481.17,86.964 482.857,84.013 482.857,84.013 L484.332,85.067 C485.28,84.013 485.124,81.03 484.857,80.007 C483.366,74.186 477.269,76.422 477.269,76.422 C473.263,78.32 475.794,80.64 475.794,80.64 C474.218,80.319 469.305,80.464 467.154,80.851 C463.049,81.586 454.923,87.496 454.923,87.496 C450.809,90.341 452.179,93.822 452.179,93.822 C452.812,96.348 461.246,102.993 461.246,102.993 C461.271,103.025 461.28,103.061 461.305,103.093 C459.561,102.857 457.94,102.543 457.139,102.145 C457.139,102.145 447.491,100.589 444.164,105.477 C444.164,105.477 433.848,102.593 433.515,116.012 C433.515,116.012 435.178,123.887 431.075,125.441 C431.075,125.441 436.84,127.657 438.948,114.015 C438.948,114.015 438.726,108.469 442.718,107.691 C442.718,107.691 440.502,112.02 442.718,118.785 C442.718,118.785 443.829,122.442 440.834,125.106 C440.834,125.106 438.618,124.885 438.172,131.43 C438.172,131.43 434.732,137.417 436.064,140.077 C436.064,140.077 436.953,141.52 436.51,142.187 C436.51,142.187 434.402,143.186 437.064,145.068 C437.064,145.068 440.172,146.398 439.504,143.849 C439.504,143.849 437.507,137.969 440.169,132.76 C440.169,132.76 448.158,124.222 448.934,122.222 C448.934,122.222 452.041,122.446 452.593,126.549 C452.593,126.549 451.261,132.434 454.034,134.983 C454.034,134.983 455.92,142.965 458.139,142.965 C458.139,142.965 458.03,145.516 461.246,145.516 C461.246,145.516 464.46,145.403 462.687,143.517 C462.687,143.517 456.033,142.524 456.477,130.206 C456.477,130.206 458.361,123.444 458.361,120.338 C458.361,120.338 471.225,124.774 475.995,121.895 C475.995,121.895 476.328,131.984 474.555,137.867 C474.555,137.867 472.89,141.196 475.328,141.97 C475.328,141.97 473.559,145.851 476.111,145.851 C476.111,145.851 479.44,146.629 479.218,144.632 C479.218,144.632 478.327,142.417 477.332,141.753 C477.332,141.753 475.884,138.202 477.997,134.205 C477.997,134.205 481.215,125.665 481.104,122.892 C481.104,122.892 485.983,125.219 488.645,127.997 C488.645,127.997 490.09,131.769 487.537,135.101 C487.537,135.101 485.981,136.433 486.094,137.428 C486.094,137.428 483.319,136.209 483.21,140.088 C483.21,140.088 483.543,143.976 485.759,140.088 C485.759,140.088 490.862,136.544 491.97,130.774 C491.97,130.774 493.078,127.006 489.973,124.785 C489.973,124.785 487.424,120.793 486.092,120.02 C486.092,120.02 490.19,114.806 487.976,110.041 C487.976,110.041 486.092,108.6 487.422,105.714 C487.422,105.714 488.785,103.253 489.597,100.313 C490.493,100.241 491.432,100.143 492.388,100.026 C492.75,100.327 493.153,100.609 493.632,100.826 C493.632,100.826 493.632,104.597 496.738,104.488 C496.738,104.47 500.067,104.355 498.511,96.592 Z M471.524,91.549 L473.159,91.336 C473.159,91.336 473.057,94.923 473.686,95.552 C473.686,95.552 471.653,95.075 471.42,94.392 C471.234,93.86 471.524,91.549 471.524,91.549 Z M470.531,102.912 C469.26,100.037 465.569,96.029 465.569,96.029 C463.354,93.078 467.573,92.87 467.573,92.87 L467.891,96.875 C468.699,99.157 472.591,99.745 474.867,99.886 C473.614,101.087 472.159,102.186 470.531,102.912 Z M490.192,96.71 C490.192,96.71 490.497,97.841 491.377,98.985 C490.862,99.035 490.366,99.083 489.871,99.126 C490.043,98.323 490.172,97.506 490.192,96.71 Z" />
        </g>
        <g id="Black-S">
            <path d="M698.511,96.592 C698.511,96.592 698.624,90.386 697.181,88.83 L698.176,84.169 L695.516,86.946 L695.846,83.615 L693.404,86.831 C693.404,86.831 686.637,81.844 679.648,93.598 C679.648,93.598 678.99,94.858 677.807,96.484 C677.522,96.251 677.278,96.029 677.165,95.817 C676.789,95.116 676.877,93.34 677.269,92.657 C677.897,91.553 678.325,86.539 678.325,86.539 C681.17,86.964 682.857,84.013 682.857,84.013 L684.332,85.067 C685.28,84.013 685.124,81.03 684.857,80.007 C683.366,74.186 677.269,76.422 677.269,76.422 C673.263,78.32 675.794,80.64 675.794,80.64 C674.218,80.319 669.305,80.464 667.154,80.851 C663.049,81.586 654.923,87.496 654.923,87.496 C650.809,90.341 652.179,93.822 652.179,93.822 C652.812,96.348 661.247,102.993 661.247,102.993 C661.271,103.025 661.28,103.061 661.305,103.093 C659.562,102.857 657.94,102.543 657.139,102.145 C657.139,102.145 647.491,100.589 644.164,105.477 C644.164,105.477 633.848,102.593 633.515,116.012 C633.515,116.012 635.178,123.887 631.075,125.441 C631.075,125.441 636.84,127.657 638.948,114.015 C638.948,114.015 638.726,108.469 642.718,107.691 C642.718,107.691 640.502,112.02 642.718,118.785 C642.718,118.785 643.829,122.442 640.834,125.106 C640.834,125.106 638.618,124.885 638.172,131.43 C638.172,131.43 634.732,137.417 636.064,140.077 C636.064,140.077 636.953,141.52 636.51,142.187 C636.51,142.187 634.402,143.186 637.064,145.068 C637.064,145.068 640.172,146.398 639.504,143.849 C639.504,143.849 637.507,137.969 640.169,132.76 C640.169,132.76 648.158,124.222 648.934,122.222 C648.934,122.222 652.041,122.446 652.593,126.549 C652.593,126.549 651.261,132.434 654.034,134.983 C654.034,134.983 655.92,142.965 658.139,142.965 C658.139,142.965 658.03,145.516 661.247,145.516 C661.247,145.516 664.46,145.403 662.687,143.517 C662.687,143.517 656.033,142.524 656.477,130.206 C656.477,130.206 658.361,123.444 658.361,120.338 C658.361,120.338 671.225,124.774 675.995,121.895 C675.995,121.895 676.328,131.984 674.555,137.867 C674.555,137.867 672.89,141.196 675.328,141.97 C675.328,141.97 673.559,145.851 676.111,145.851 C676.111,145.851 679.44,146.629 679.218,144.632 C679.218,144.632 678.327,142.417 677.332,141.753 C677.332,141.753 675.884,138.202 677.997,134.205 C677.997,134.205 681.215,125.665 681.105,122.892 C681.105,122.892 685.983,125.219 688.645,127.997 C688.645,127.997 690.09,131.769 687.537,135.101 C687.537,135.101 685.981,136.433 686.094,137.428 C686.094,137.428 683.319,136.209 683.21,140.088 C683.21,140.088 683.543,143.976 685.759,140.088 C685.759,140.088 690.862,136.544 691.97,130.774 C691.97,130.774 693.078,127.006 689.973,124.785 C689.973,124.785 687.424,120.793 686.092,120.02 C686.092,120.02 690.19,114.806 687.976,110.041 C687.976,110.041 686.092,108.6 687.422,105.714 C687.422,105.714 688.785,103.253 689.597,100.313 C690.493,100.241 691.432,100.143 692.388,100.026 C692.75,100.327 693.153,100.609 693.632,100.826 C693.632,100.826 693.632,104.597 696.738,104.488 C696.738,104.47 700.067,104.355 698.511,96.592 Z M671.524,91.549 L673.159,91.336 C673.159,91.336 673.057,94.923 673.686,95.552 C673.686,95.552 671.653,95.075 671.42,94.392 C671.234,93.86 671.524,91.549 671.524,91.549 Z M670.531,102.912 C669.26,100.037 665.569,96.029 665.569,96.029 C663.354,93.078 667.573,92.87 667.573,92.87 L667.891,96.875 C668.699,99.157 672.591,99.745 674.867,99.886 C673.614,101.087 672.159,102.186 670.531,102.912 Z M690.192,96.71 C690.192,96.71 690.497,97.841 691.377,98.985 C690.862,99.035 690.366,99.083 689.871,99.126 C690.043,98.323 690.172,97.506 690.192,96.71 Z" />
        </g>
    </g>
</svg>