<?xml version="1.0" encoding="UTF-8"?>
<svg height="600" width="800" xmlns="http://www.w3.org/2000/svg" xmlns:xlink="http://www.w3.org/1999/xlink">
    <g id="Notes" font-family="'LucidaGrande', 'Lucida Grande', sans-serif" font-size="13">
        <rect fill="white" height="600.0" width="800.0" x="0.0" y="0.0" />
        <g font-size="13">
            <text x="18.0" y="176.0">Small</text>
            <text x="18.0" y="376.0">Medium</text>
            <text x="18.0" y="576.0">Large</text>
        </g>
        <g font-size="9">
            <text x="250.0" y="30.0">Ultralight</text>
            <text x="450.0" y="30.0">Regular</text>
            <text x="650.0" y="30.0">Black</text>
            <text id="template-version" fill="#505050" text-anchor="end" x="785.0" y="575.0">Template v.3.0</text>
            <a href="https://wangchujiang.com/#/app">
                <text fill="#505050" text-anchor="end" x="785.0" y="590.0">https://wangchujiang.com/#/app</text>
            </a>
        </g>
    </g>
    <g id="Guides" stroke="rgb(39, 170, 225)" stroke-width="0.5">
        <path id="Capline-S" d="M18,76 l800,0" />
        <path id="H-reference" d="M85,145.755 L87.685,145.755 L113.369,79.287 L114.052,79.287 L114.052,76 L112.148,76 L85,145.755 Z M95.693,121.536 L130.996,121.536 L130.263,119.313 L96.474,119.313 L95.693,121.536 Z M139.15,145.755 L141.787,145.755 L114.638,76 L113.466,76 L113.466,79.287 L139.15,145.755 Z" stroke="none" />
        <path id="Baseline-S" d="M18,146 l800,0" />
        <path id="left-margin-Ultralight-S" d="M211,56 l0,110" />
        <path id="right-margin-Ultralight-S" d="M319,56 l0,110" />
        <path id="left-margin-Regular-S" d="M411,56 l0,110" />
        <path id="right-margin-Regular-S" d="M519,56 l0,110" />
        <path id="left-margin-Black-S" d="M611,56 l0,110" />
        <path id="right-margin-Black-S" d="M719,56 l0,110" />
        <path id="Capline-M" d="M18,276 l800,0" />
        <path id="Baseline-M" d="M18,346 l800,0" />
        <path id="Capline-L" d="M18,476 l800,0" />
        <path id="Baseline-L" d="M18,546 l800,0" />
    </g>
    <g id="Symbols">
        <g id="Ultralight-S">
            <path d="M222.413,107.122 C223.375,106.92 224.357,106.883 225.332,107.011 L234.558,108.224 C234.444,108.715 234.459,109.289 234.671,109.921 C235.445,112.18 236.213,113.447 237.964,115.247 C238.591,115.8 239.159,115.976 239.668,115.946 L238.269,116.546 C238.044,116.642 237.939,116.905 238.036,117.13 C238.133,117.354 238.396,117.459 238.621,117.362 L240.912,116.379 L241.342,116.195 L244.533,120.108 C244.458,120.263 244.415,120.437 244.415,120.62 C244.415,121.275 244.947,121.805 245.603,121.805 C246.211,121.805 246.711,121.35 246.782,120.764 L285.148,110.291 C285.036,110.076 284.971,109.832 284.971,109.573 C284.971,109.082 285.199,108.646 285.555,108.361 C285.345,107.149 285.233,106.102 285.174,105.284 C283.867,105.711 278.778,107.313 272.123,108.616 C269.629,109.104 267.194,109.495 264.825,109.792 C265.66,111.851 266.973,113.318 267.796,114.097 L250.528,118.811 C249.79,116.812 247.863,115.387 245.603,115.387 C244.692,115.387 243.835,115.619 243.088,116.026 L243.814,116.916 C244.355,116.655 244.962,116.508 245.603,116.508 C247.342,116.508 248.831,117.587 249.437,119.109 L246.544,119.899 C246.327,119.617 245.987,119.436 245.603,119.436 C245.505,119.436 245.409,119.449 245.318,119.471 L242.308,115.78 L242.737,115.596 L244.488,114.845 C244.713,114.748 244.818,114.486 244.721,114.261 C244.705,114.224 244.683,114.192 244.659,114.162 L247.393,112.97 L255.031,113.501 C255.805,113.555 256.476,112.973 256.531,112.201 C256.585,111.429 256.001,110.759 255.227,110.705 L247.244,110.15 C247.018,110.134 246.791,110.173 246.583,110.264 L241.009,112.694 C240.918,112.591 240.829,112.485 240.741,112.376 L240.049,112.66 C239.905,112.719 239.753,112.749 239.597,112.749 C239.287,112.749 238.993,112.631 238.77,112.417 L235.814,109.579 C235.34,109.125 235.326,108.371 235.781,107.899 C236.008,107.664 236.313,107.534 236.64,107.534 C236.95,107.534 237.243,107.652 237.466,107.866 L238.802,109.148 C238.736,109.015 238.672,108.884 238.609,108.757 L242.162,109.224 L242.789,108.967 L238.431,108.394 C238.385,108.299 238.339,108.205 238.294,108.115 C237.868,107.034 236.718,106.231 235.811,106.624 C235.333,106.832 234.888,107.279 234.656,107.898 L225.376,106.678 C224.363,106.544 223.343,106.583 222.344,106.793 L221,107.075 L221.069,107.405 L222.413,107.122 Z M272.475,111.572 L273.037,111.545 C273.056,111.927 273.061,112.3 273.055,112.662 L272.487,112.817 C272.499,112.415 272.497,112 272.475,111.572 Z M246.229,120.62 C246.229,120.965 245.948,121.245 245.603,121.245 C245.258,121.245 244.977,120.965 244.977,120.62 C244.977,120.276 245.258,119.996 245.603,119.996 C245.948,119.996 246.229,120.276 246.229,120.62 Z M243.795,118.084 C243.933,118.084 244.046,118.196 244.046,118.334 C244.046,118.472 243.933,118.584 243.795,118.584 C243.657,118.584 243.544,118.472 243.544,118.334 C243.544,118.196 243.657,118.084 243.795,118.084 Z" />
            <path d="M285.399,110.641 L272.976,114.032 C272.824,115.601 272.485,116.865 272.222,117.661 L272.572,117.971 C272.579,117.977 272.586,117.983 272.594,117.99 C272.594,117.99 272.594,117.99 272.594,117.99 C272.594,117.99 272.594,117.99 272.594,117.99 C272.615,118.008 272.636,118.024 272.658,118.04 L275.664,120.274 L277.866,124.253 C278.038,124.564 278.348,124.775 278.701,124.822 L280.132,125.013 C280.182,125.02 280.233,125.023 280.282,125.023 C280.837,125.023 281.319,124.614 281.395,124.051 C281.477,123.437 281.045,122.873 280.43,122.791 L279.561,122.675 L277.515,118.978 C277.438,118.838 277.331,118.717 277.202,118.621 L274.418,116.552 L274.311,114.376 L280.388,115.764 C282.449,116.229 285.429,116.588 288.13,116.651 C287.222,114.692 286.586,112.795 286.141,111.077 C285.853,111.003 285.597,110.85 285.399,110.641 Z" />
            <path d="M271.753,117.246 L271.758,117.251 C271.984,116.52 272.248,115.463 272.391,114.192 L268.48,115.259 L268.641,117.083 C268.643,117.102 268.646,117.12 268.649,117.139 L266.652,118.621 C266.381,118.821 266.216,119.132 266.2,119.468 C266.184,119.804 266.32,120.129 266.571,120.353 L271.017,124.346 C271.228,124.536 271.497,124.634 271.769,124.634 C271.955,124.634 272.141,124.588 272.311,124.495 L273.175,124.02 C273.718,123.721 273.917,123.04 273.617,122.497 C273.317,121.955 272.634,121.757 272.09,122.056 L271.927,122.146 L269.095,119.603 L271.318,117.953 C271.482,117.831 271.608,117.668 271.685,117.483 C271.702,117.43 271.719,117.375 271.737,117.318 C271.743,117.294 271.749,117.27 271.753,117.246 Z" />
            <path d="M308.105,105.073 C308.562,104.881 309.149,103.484 308.966,102.812 C308.903,102.583 308.304,102.102 307.542,101.568 C307.334,102.349 306.93,103.857 306.618,104.966 C307.322,105.08 307.929,105.146 308.105,105.073 Z" />
            <path d="M299.243,103.043 L306.84,102.453 C306.966,101.983 307.075,101.573 307.149,101.297 C305.729,100.335 303.997,99.311 303.997,99.311 C303.997,99.311 303.442,98.943 302.778,98.533 C301.231,99.462 299.711,102.16 299.243,103.043 Z M303.747,100.199 C304.018,100.199 304.238,100.419 304.238,100.69 C304.238,100.961 304.018,101.181 303.747,101.181 C303.475,101.181 303.255,100.961 303.255,100.69 C303.255,100.419 303.475,100.199 303.747,100.199 Z" />
            <path d="M290.455,104.176 C291.631,105.391 293.514,107.074 296.188,108.717 C296.194,108.698 296.2,108.678 296.206,108.66 L301.218,104.72 C301.584,104.427 303.399,104.365 303.854,104.44 C304.098,104.48 305.163,104.712 306.172,104.89 C306.341,104.294 306.537,103.574 306.716,102.912 L290.455,104.176 Z" />
            <path d="M298.715,103.084 C298.93,102.656 300.55,99.513 302.354,98.274 C302.052,98.093 301.747,97.917 301.476,97.772 C301.691,97.318 301.947,96.818 302.249,96.283 C301.787,96.497 301.252,96.943 300.742,97.444 C300.69,97.431 300.647,97.424 300.616,97.427 C300.346,97.452 300.022,97.484 299.741,97.507 C299.089,96.842 298.408,96.363 297.942,96.158 C297.803,96.097 297.742,96.274 297.854,96.407 C298.279,96.907 298.558,97.372 298.742,97.772 C298.687,97.809 298.63,97.851 298.572,97.894 C297.964,97.302 297.346,96.876 296.913,96.686 C296.774,96.625 296.713,96.802 296.825,96.935 C297.069,97.221 297.264,97.497 297.422,97.755 C296.299,97.348 295.159,97.305 294.63,97.539 C295.424,97.927 295.885,98.332 296.148,98.696 C294.938,98.419 293.742,98.537 293.236,98.854 C294.014,99.105 294.511,99.41 294.829,99.71 C293.472,99.281 292.025,99.385 291.453,99.742 C292.325,100.024 292.844,100.373 293.153,100.707 L292.747,100.495 C292.747,100.495 291.275,99.615 289.743,100.475 C290.14,100.633 290.498,100.811 290.817,100.993 C289.398,100.74 287.953,101.045 287.431,101.483 C288.883,101.737 289.459,102.293 289.686,102.72 C289.544,102.759 289.403,102.797 289.263,102.835 C289.447,103.065 289.712,103.379 290.059,103.757 L298.715,103.084 Z" />
            <path d="M286.467,104.036 L289.205,103.823 C288.907,103.481 288.692,103.209 288.557,103.03 C287.68,103.272 286.923,103.489 286.46,103.645 C286.461,103.745 286.462,103.876 286.467,104.036 Z" />
            <path d="M289.581,104.244 L286.484,104.485 C286.523,105.3 286.625,106.541 286.884,108.059 C287.575,108.219 288.09,108.835 288.09,109.573 C288.09,110.077 287.848,110.524 287.475,110.809 C287.943,112.611 288.627,114.612 289.624,116.654 C289.772,116.651 289.918,116.646 290.062,116.64 L291.186,120.191 L287.749,119.788 L287.725,119.755 C287.359,119.254 286.656,119.144 286.154,119.508 C285.652,119.872 285.541,120.573 285.906,121.074 L286.22,121.503 C286.404,121.756 286.686,121.921 286.997,121.957 L292.65,122.621 C292.653,122.621 292.657,122.621 292.66,122.622 C292.7,122.626 292.74,122.629 292.781,122.629 C292.815,122.629 292.85,122.627 292.885,122.624 C292.892,122.623 292.899,122.622 292.907,122.621 C292.933,122.618 292.959,122.614 292.986,122.609 C292.995,122.608 293.005,122.606 293.014,122.604 C293.04,122.598 293.066,122.592 293.091,122.584 C293.099,122.582 293.106,122.581 293.114,122.578 C293.116,122.578 293.118,122.577 293.119,122.577 C293.133,122.573 293.145,122.567 293.159,122.562 C293.179,122.555 293.2,122.548 293.22,122.54 C293.238,122.532 293.256,122.522 293.274,122.514 C293.289,122.506 293.304,122.5 293.319,122.492 C293.34,122.48 293.36,122.468 293.38,122.455 C293.391,122.448 293.402,122.442 293.413,122.435 C293.434,122.42 293.455,122.404 293.476,122.388 C293.484,122.381 293.493,122.375 293.501,122.368 C293.522,122.351 293.543,122.332 293.563,122.312 C293.568,122.307 293.575,122.302 293.58,122.296 C293.581,122.295 293.582,122.294 293.583,122.293 C293.612,122.264 293.639,122.233 293.664,122.201 C293.668,122.197 293.671,122.191 293.675,122.187 C293.695,122.16 293.714,122.133 293.732,122.105 C293.739,122.093 293.746,122.081 293.753,122.069 C293.766,122.047 293.778,122.024 293.789,122.001 C293.796,121.988 293.802,121.974 293.808,121.96 C293.819,121.937 293.828,121.914 293.837,121.89 C293.841,121.877 293.846,121.863 293.851,121.849 C293.859,121.823 293.866,121.796 293.873,121.769 C293.876,121.758 293.879,121.747 293.881,121.736 C293.889,121.699 293.895,121.662 293.899,121.625 C293.899,121.623 293.899,121.621 293.9,121.619 C293.904,121.578 293.906,121.536 293.905,121.495 C293.905,121.49 293.904,121.485 293.904,121.48 C293.903,121.445 293.901,121.41 293.897,121.375 C293.896,121.371 293.897,121.368 293.896,121.364 L293.266,116.489 L296.75,117.433 L296.05,123.275 L295.586,123.628 C295.092,124.004 294.998,124.707 295.374,125.2 C295.596,125.489 295.93,125.641 296.269,125.641 C296.507,125.641 296.746,125.566 296.95,125.411 L297.792,124.77 C298.033,124.586 298.19,124.313 298.226,124.012 L299.098,116.738 C299.098,116.731 299.098,116.724 299.099,116.718 C299.101,116.698 299.102,116.679 299.103,116.659 C299.104,116.643 299.105,116.627 299.105,116.611 C299.105,116.592 299.104,116.574 299.104,116.556 C299.103,116.538 299.102,116.52 299.1,116.503 C299.098,116.486 299.097,116.47 299.095,116.454 C299.092,116.434 299.088,116.414 299.085,116.395 C299.082,116.381 299.079,116.367 299.076,116.353 C299.071,116.331 299.065,116.31 299.059,116.289 C299.055,116.277 299.052,116.265 299.048,116.254 C299.041,116.231 299.032,116.208 299.023,116.186 C299.019,116.176 299.016,116.166 299.011,116.157 C299,116.131 298.988,116.107 298.975,116.082 C298.972,116.076 298.969,116.07 298.966,116.063 C298.949,116.034 298.931,116.004 298.912,115.976 C298.905,115.965 298.896,115.955 298.888,115.944 C298.876,115.927 298.864,115.91 298.851,115.894 C298.84,115.882 298.829,115.87 298.818,115.857 C298.806,115.844 298.794,115.83 298.781,115.818 C298.77,115.806 298.757,115.794 298.745,115.783 C298.731,115.771 298.718,115.758 298.704,115.747 C298.692,115.736 298.679,115.726 298.666,115.716 C298.65,115.704 298.634,115.693 298.618,115.682 C298.606,115.673 298.593,115.665 298.58,115.657 C298.562,115.645 298.543,115.634 298.524,115.624 C298.512,115.617 298.5,115.611 298.488,115.605 C298.466,115.594 298.444,115.584 298.422,115.574 C298.414,115.571 298.406,115.567 298.397,115.563 L294.538,114.029 C294.923,112.816 295.573,110.697 295.982,109.381 C292.838,107.475 290.758,105.525 289.581,104.244 Z" />
            <path d="M249.726,120.621 C249.726,122.888 247.877,124.733 245.603,124.733 C243.329,124.733 241.48,122.888 241.48,120.621 C241.48,119.68 241.798,118.814 242.332,118.12 L241.607,117.23 C240.827,118.144 240.355,119.327 240.355,120.62 C240.355,123.511 242.705,125.854 245.603,125.854 C248.501,125.854 250.851,123.511 250.851,120.62 C250.851,120.438 250.841,120.257 250.823,120.079 L249.719,120.38 C249.723,120.46 249.726,120.54 249.726,120.621 Z" />
            <path d="M236.18,103.28 L236.108,103.855 C236.087,103.96 235.9,104.799 235.462,105.037 C235.323,105.112 235.171,105.12 235.02,105.062 C234.692,104.935 234.307,105.004 234.038,105.085 C234.503,105.629 235.194,105.975 235.967,105.974 C237.364,105.973 238.495,104.842 238.494,103.449 C238.494,103.2 238.457,102.959 238.389,102.732 L236.573,102.9 C236.371,102.919 236.205,103.079 236.18,103.28 Z" />
            <path d="M238.568,101.853 C238.153,100.698 237.047,99.895 235.769,99.895 C235.716,99.895 235.663,99.896 235.609,99.899 C234.209,99.972 233.044,101.029 232.839,102.412 C232.701,103.343 233.011,104.283 233.671,104.944 C233.902,104.844 234.555,104.605 235.114,104.822 C235.195,104.853 235.266,104.849 235.338,104.81 C235.621,104.657 235.806,104.038 235.853,103.812 L235.924,103.248 C235.964,102.928 236.227,102.673 236.549,102.643 L238.066,102.503 C238.38,102.485 238.702,102.454 238.971,102.414 C239.348,102.359 239.619,102.287 239.614,102.211 C239.602,102.042 239.293,101.915 238.848,101.87 C238.76,101.861 238.666,101.855 238.568,101.853 Z M237.336,101.143 C237.471,101.057 237.687,101.152 237.818,101.356 C237.949,101.561 237.946,101.796 237.811,101.882 C237.676,101.969 237.46,101.873 237.329,101.669 C237.198,101.465 237.201,101.229 237.336,101.143 Z" />
            <path d="M245.699,109.059 C245.75,109.185 245.779,109.317 245.786,109.449 C248.616,109.899 251.547,110.085 254.453,110.085 C260.907,110.085 267.236,109.172 272.047,108.23 C278.866,106.896 284.029,105.248 285.147,104.88 C285.124,104.469 285.114,104.133 285.111,103.883 C282.494,104.145 279.098,104.323 277.399,103.657 C274.331,102.455 274.376,102.509 270.107,102.761 C268.72,102.842 267.57,102.997 267.013,103.387 C266.992,103.402 266.86,103.466 266.666,103.582 C265.19,102.756 262.919,102.271 261.139,102.683 C258.997,103.178 254.146,105.057 252.399,104.766 C250.652,104.476 254.206,107.48 256.202,107.022 C257.856,106.643 260.644,104.937 265.225,104.794 C264.492,105.676 263.933,107 264.489,108.843 C264.491,108.852 264.495,108.861 264.498,108.871 C260.015,109.422 255.028,109.72 250.153,109.377 C248.612,109.268 247.083,109.096 245.584,108.847 C245.629,108.913 245.667,108.984 245.699,109.059 Z" />
            <path d="M239.797,110.508 L237.264,108.076 C236.906,107.733 236.336,107.744 235.992,108.101 C235.648,108.458 235.659,109.025 236.016,109.369 L238.973,112.207 C239.144,112.37 239.368,112.457 239.597,112.457 C239.712,112.457 239.828,112.435 239.938,112.39 L244.938,110.341 C245.398,110.152 245.617,109.628 245.428,109.17 C245.239,108.712 244.714,108.493 244.255,108.681 L239.797,110.508 Z" />
            <path d="M285.646,109.573 C285.646,110.06 286.043,110.455 286.531,110.455 C287.018,110.455 287.415,110.06 287.415,109.573 C287.415,109.086 287.019,108.69 286.531,108.69 C286.043,108.69 285.646,109.086 285.646,109.573 Z" />
        </g>
        <g id="Regular-S">
            <path d="M422.413,107.122 C423.375,106.92 424.357,106.883 425.332,107.011 L434.558,108.224 C434.444,108.715 434.459,109.289 434.671,109.921 C435.445,112.18 436.213,113.447 437.964,115.247 C438.591,115.8 439.159,115.976 439.668,115.946 L438.269,116.546 C438.044,116.642 437.939,116.905 438.036,117.13 C438.133,117.354 438.396,117.459 438.621,117.362 L440.912,116.379 L441.342,116.195 L444.533,120.108 C444.458,120.263 444.415,120.437 444.415,120.62 C444.415,121.275 444.947,121.805 445.603,121.805 C446.211,121.805 446.711,121.35 446.782,120.764 L485.148,110.291 C485.036,110.076 484.971,109.832 484.971,109.573 C484.971,109.082 485.199,108.646 485.555,108.361 C485.345,107.149 485.233,106.102 485.174,105.284 C483.867,105.711 478.778,107.313 472.123,108.616 C469.629,109.104 467.194,109.495 464.825,109.792 C465.66,111.851 466.973,113.318 467.796,114.097 L450.528,118.811 C449.79,116.812 447.863,115.387 445.603,115.387 C444.692,115.387 443.835,115.619 443.088,116.026 L443.814,116.916 C444.355,116.655 444.962,116.508 445.603,116.508 C447.342,116.508 448.831,117.587 449.437,119.109 L446.544,119.899 C446.327,119.617 445.987,119.436 445.603,119.436 C445.505,119.436 445.409,119.449 445.318,119.471 L442.308,115.78 L442.737,115.596 L444.488,114.845 C444.713,114.748 444.818,114.486 444.721,114.261 C444.705,114.224 444.683,114.192 444.659,114.162 L447.393,112.97 L455.031,113.501 C455.805,113.555 456.476,112.973 456.531,112.201 C456.585,111.429 456.001,110.759 455.227,110.705 L447.244,110.15 C447.018,110.134 446.791,110.173 446.583,110.264 L441.009,112.694 C440.918,112.591 440.829,112.485 440.741,112.376 L440.049,112.66 C439.905,112.719 439.753,112.749 439.597,112.749 C439.287,112.749 438.993,112.631 438.77,112.417 L435.814,109.579 C435.34,109.125 435.326,108.371 435.781,107.899 C436.008,107.664 436.313,107.534 436.64,107.534 C436.95,107.534 437.243,107.652 437.466,107.866 L438.802,109.148 C438.736,109.015 438.672,108.884 438.609,108.757 L442.162,109.224 L442.789,108.967 L438.431,108.394 C438.385,108.299 438.339,108.205 438.294,108.115 C437.868,107.034 436.718,106.231 435.811,106.624 C435.333,106.832 434.888,107.279 434.656,107.898 L425.376,106.678 C424.363,106.544 423.343,106.583 422.344,106.793 L421,107.075 L421.069,107.405 L422.413,107.122 Z M472.475,111.572 L473.037,111.545 C473.056,111.927 473.061,112.3 473.055,112.662 L472.487,112.817 C472.499,112.415 472.497,112 472.475,111.572 Z M446.229,120.62 C446.229,120.965 445.948,121.245 445.603,121.245 C445.258,121.245 444.977,120.965 444.977,120.62 C444.977,120.276 445.258,119.996 445.603,119.996 C445.948,119.996 446.229,120.276 446.229,120.62 Z M443.795,118.084 C443.933,118.084 444.046,118.196 444.046,118.334 C444.046,118.472 443.933,118.584 443.795,118.584 C443.657,118.584 443.544,118.472 443.544,118.334 C443.544,118.196 443.657,118.084 443.795,118.084 Z" />
            <path d="M485.399,110.641 L472.976,114.032 C472.824,115.601 472.485,116.865 472.222,117.661 L472.572,117.971 C472.579,117.977 472.586,117.983 472.594,117.99 C472.594,117.99 472.594,117.99 472.594,117.99 C472.594,117.99 472.594,117.99 472.594,117.99 C472.615,118.008 472.636,118.024 472.658,118.04 L475.664,120.274 L477.866,124.253 C478.038,124.564 478.348,124.775 478.701,124.822 L480.132,125.013 C480.182,125.02 480.233,125.023 480.282,125.023 C480.837,125.023 481.319,124.614 481.395,124.051 C481.477,123.437 481.045,122.873 480.43,122.791 L479.561,122.675 L477.515,118.978 C477.438,118.838 477.331,118.717 477.202,118.621 L474.418,116.552 L474.311,114.376 L480.388,115.764 C482.449,116.229 485.429,116.588 488.13,116.651 C487.222,114.692 486.586,112.795 486.141,111.077 C485.853,111.003 485.597,110.85 485.399,110.641 Z" />
            <path d="M471.753,117.246 L471.758,117.251 C471.984,116.52 472.248,115.463 472.391,114.192 L468.48,115.259 L468.641,117.083 C468.643,117.102 468.646,117.12 468.649,117.139 L466.652,118.621 C466.381,118.821 466.216,119.132 466.2,119.468 C466.184,119.804 466.32,120.129 466.571,120.353 L471.017,124.346 C471.228,124.536 471.497,124.634 471.769,124.634 C471.955,124.634 472.141,124.588 472.311,124.495 L473.175,124.02 C473.718,123.721 473.917,123.04 473.617,122.497 C473.317,121.955 472.634,121.757 472.09,122.056 L471.927,122.146 L469.095,119.603 L471.318,117.953 C471.482,117.831 471.608,117.668 471.685,117.483 C471.702,117.43 471.719,117.375 471.737,117.318 C471.743,117.294 471.749,117.27 471.753,117.246 Z" />
            <path d="M508.105,105.073 C508.562,104.881 509.149,103.484 508.966,102.812 C508.903,102.583 508.304,102.102 507.542,101.568 C507.334,102.349 506.93,103.857 506.618,104.966 C507.322,105.08 507.929,105.146 508.105,105.073 Z" />
            <path d="M499.243,103.043 L506.84,102.453 C506.966,101.983 507.075,101.573 507.149,101.297 C505.729,100.335 503.997,99.311 503.997,99.311 C503.997,99.311 503.442,98.943 502.778,98.533 C501.231,99.462 499.711,102.16 499.243,103.043 Z M503.747,100.199 C504.018,100.199 504.238,100.419 504.238,100.69 C504.238,100.961 504.018,101.181 503.747,101.181 C503.475,101.181 503.255,100.961 503.255,100.69 C503.255,100.419 503.475,100.199 503.747,100.199 Z" />
            <path d="M490.455,104.176 C491.631,105.391 493.514,107.074 496.188,108.717 C496.194,108.698 496.2,108.678 496.206,108.66 L501.218,104.72 C501.584,104.427 503.399,104.365 503.854,104.44 C504.098,104.48 505.163,104.712 506.172,104.89 C506.341,104.294 506.537,103.574 506.716,102.912 L490.455,104.176 Z" />
            <path d="M498.715,103.084 C498.93,102.656 500.55,99.513 502.354,98.274 C502.052,98.093 501.747,97.917 501.476,97.772 C501.691,97.318 501.947,96.818 502.249,96.283 C501.787,96.497 501.252,96.943 500.742,97.444 C500.69,97.431 500.647,97.424 500.616,97.427 C500.346,97.452 500.022,97.484 499.741,97.507 C499.089,96.842 498.408,96.363 497.942,96.158 C497.803,96.097 497.742,96.274 497.854,96.407 C498.279,96.907 498.558,97.372 498.742,97.772 C498.687,97.809 498.63,97.851 498.572,97.894 C497.964,97.302 497.346,96.876 496.913,96.686 C496.774,96.625 496.713,96.802 496.825,96.935 C497.069,97.221 497.264,97.497 497.422,97.755 C496.299,97.348 495.159,97.305 494.63,97.539 C495.424,97.927 495.885,98.332 496.148,98.696 C494.938,98.419 493.742,98.537 493.236,98.854 C494.014,99.105 494.511,99.41 494.829,99.71 C493.472,99.281 492.025,99.385 491.453,99.742 C492.325,100.024 492.844,100.373 493.153,100.707 L492.747,100.495 C492.747,100.495 491.275,99.615 489.743,100.475 C490.14,100.633 490.498,100.811 490.817,100.993 C489.398,100.74 487.953,101.045 487.431,101.483 C488.883,101.737 489.459,102.293 489.686,102.72 C489.544,102.759 489.403,102.797 489.263,102.835 C489.447,103.065 489.712,103.379 490.059,103.757 L498.715,103.084 Z" />
            <path d="M486.467,104.036 L489.205,103.823 C488.907,103.481 488.692,103.209 488.557,103.03 C487.68,103.272 486.923,103.489 486.46,103.645 C486.461,103.745 486.462,103.876 486.467,104.036 Z" />
            <path d="M489.581,104.244 L486.484,104.485 C486.523,105.3 486.625,106.541 486.884,108.059 C487.575,108.219 488.09,108.835 488.09,109.573 C488.09,110.077 487.848,110.524 487.475,110.809 C487.943,112.611 488.627,114.612 489.624,116.654 C489.772,116.651 489.918,116.646 490.062,116.64 L491.186,120.191 L487.749,119.788 L487.725,119.755 C487.359,119.254 486.656,119.144 486.154,119.508 C485.652,119.872 485.541,120.573 485.906,121.074 L486.22,121.503 C486.404,121.756 486.686,121.921 486.997,121.957 L492.65,122.621 C492.653,122.621 492.657,122.621 492.66,122.622 C492.7,122.626 492.74,122.629 492.781,122.629 C492.815,122.629 492.85,122.627 492.885,122.624 C492.892,122.623 492.899,122.622 492.907,122.621 C492.933,122.618 492.959,122.614 492.986,122.609 C492.995,122.608 493.005,122.606 493.014,122.604 C493.04,122.598 493.066,122.592 493.091,122.584 C493.099,122.582 493.106,122.581 493.114,122.578 C493.116,122.578 493.118,122.577 493.119,122.577 C493.133,122.573 493.145,122.567 493.159,122.562 C493.179,122.555 493.2,122.548 493.22,122.54 C493.238,122.532 493.256,122.522 493.274,122.514 C493.289,122.506 493.304,122.5 493.319,122.492 C493.34,122.48 493.36,122.468 493.38,122.455 C493.391,122.448 493.402,122.442 493.413,122.435 C493.434,122.42 493.455,122.404 493.476,122.388 C493.484,122.381 493.493,122.375 493.501,122.368 C493.522,122.351 493.543,122.332 493.563,122.312 C493.568,122.307 493.575,122.302 493.58,122.296 C493.581,122.295 493.582,122.294 493.583,122.293 C493.612,122.264 493.639,122.233 493.664,122.201 C493.668,122.197 493.671,122.191 493.675,122.187 C493.695,122.16 493.714,122.133 493.732,122.105 C493.739,122.093 493.746,122.081 493.753,122.069 C493.766,122.047 493.778,122.024 493.789,122.001 C493.796,121.988 493.802,121.974 493.808,121.96 C493.819,121.937 493.828,121.914 493.837,121.89 C493.841,121.877 493.846,121.863 493.851,121.849 C493.859,121.823 493.866,121.796 493.873,121.769 C493.876,121.758 493.879,121.747 493.881,121.736 C493.889,121.699 493.895,121.662 493.899,121.625 C493.899,121.623 493.899,121.621 493.9,121.619 C493.904,121.578 493.906,121.536 493.905,121.495 C493.905,121.49 493.904,121.485 493.904,121.48 C493.903,121.445 493.901,121.41 493.897,121.375 C493.896,121.371 493.897,121.368 493.896,121.364 L493.266,116.489 L496.75,117.433 L496.05,123.275 L495.586,123.628 C495.092,124.004 494.998,124.707 495.374,125.2 C495.596,125.489 495.93,125.641 496.269,125.641 C496.507,125.641 496.746,125.566 496.95,125.411 L497.792,124.77 C498.033,124.586 498.19,124.313 498.226,124.012 L499.098,116.738 C499.098,116.731 499.098,116.724 499.099,116.718 C499.101,116.698 499.102,116.679 499.103,116.659 C499.104,116.643 499.105,116.627 499.105,116.611 C499.105,116.592 499.104,116.574 499.104,116.556 C499.103,116.538 499.102,116.52 499.1,116.503 C499.098,116.486 499.097,116.47 499.095,116.454 C499.092,116.434 499.088,116.414 499.085,116.395 C499.082,116.381 499.079,116.367 499.076,116.353 C499.071,116.331 499.065,116.31 499.059,116.289 C499.055,116.277 499.052,116.265 499.048,116.254 C499.041,116.231 499.032,116.208 499.023,116.186 C499.019,116.176 499.016,116.166 499.011,116.157 C499,116.131 498.988,116.107 498.975,116.082 C498.972,116.076 498.969,116.07 498.966,116.063 C498.949,116.034 498.931,116.004 498.912,115.976 C498.905,115.965 498.896,115.955 498.888,115.944 C498.876,115.927 498.864,115.91 498.851,115.894 C498.84,115.882 498.829,115.87 498.818,115.857 C498.806,115.844 498.794,115.83 498.781,115.818 C498.77,115.806 498.757,115.794 498.745,115.783 C498.731,115.771 498.718,115.758 498.704,115.747 C498.692,115.736 498.679,115.726 498.666,115.716 C498.65,115.704 498.634,115.693 498.618,115.682 C498.606,115.673 498.593,115.665 498.58,115.657 C498.562,115.645 498.543,115.634 498.524,115.624 C498.512,115.617 498.5,115.611 498.488,115.605 C498.466,115.594 498.444,115.584 498.422,115.574 C498.414,115.571 498.406,115.567 498.397,115.563 L494.538,114.029 C494.923,112.816 495.573,110.697 495.982,109.381 C492.838,107.475 490.758,105.525 489.581,104.244 Z" />
            <path d="M449.726,120.621 C449.726,122.888 447.877,124.733 445.603,124.733 C443.329,124.733 441.48,122.888 441.48,120.621 C441.48,119.68 441.798,118.814 442.332,118.12 L441.607,117.23 C440.827,118.144 440.355,119.327 440.355,120.62 C440.355,123.511 442.705,125.854 445.603,125.854 C448.501,125.854 450.851,123.511 450.851,120.62 C450.851,120.438 450.841,120.257 450.823,120.079 L449.719,120.38 C449.723,120.46 449.726,120.54 449.726,120.621 Z" />
            <path d="M436.18,103.28 L436.108,103.855 C436.087,103.96 435.9,104.799 435.462,105.037 C435.323,105.112 435.171,105.12 435.02,105.062 C434.692,104.935 434.307,105.004 434.038,105.085 C434.503,105.629 435.194,105.975 435.967,105.974 C437.364,105.973 438.495,104.842 438.494,103.449 C438.494,103.2 438.457,102.959 438.389,102.732 L436.573,102.9 C436.371,102.919 436.205,103.079 436.18,103.28 Z" />
            <path d="M438.568,101.853 C438.153,100.698 437.047,99.895 435.769,99.895 C435.716,99.895 435.663,99.896 435.609,99.899 C434.209,99.972 433.044,101.029 432.839,102.412 C432.701,103.343 433.011,104.283 433.671,104.944 C433.902,104.844 434.555,104.605 435.114,104.822 C435.195,104.853 435.266,104.849 435.338,104.81 C435.621,104.657 435.806,104.038 435.853,103.812 L435.924,103.248 C435.964,102.928 436.227,102.673 436.549,102.643 L438.066,102.503 C438.38,102.485 438.702,102.454 438.971,102.414 C439.348,102.359 439.619,102.287 439.614,102.211 C439.602,102.042 439.293,101.915 438.848,101.87 C438.76,101.861 438.666,101.855 438.568,101.853 Z M437.336,101.143 C437.471,101.057 437.687,101.152 437.818,101.356 C437.949,101.561 437.946,101.796 437.811,101.882 C437.676,101.969 437.46,101.873 437.329,101.669 C437.198,101.465 437.201,101.229 437.336,101.143 Z" />
            <path d="M445.699,109.059 C445.75,109.185 445.779,109.317 445.786,109.449 C448.616,109.899 451.547,110.085 454.453,110.085 C460.907,110.085 467.236,109.172 472.047,108.23 C478.866,106.896 484.029,105.248 485.147,104.88 C485.124,104.469 485.114,104.133 485.111,103.883 C482.494,104.145 479.098,104.323 477.399,103.657 C474.331,102.455 474.376,102.509 470.107,102.761 C468.72,102.842 467.57,102.997 467.013,103.387 C466.992,103.402 466.86,103.466 466.666,103.582 C465.19,102.756 462.919,102.271 461.139,102.683 C458.997,103.178 454.146,105.057 452.399,104.766 C450.652,104.476 454.206,107.48 456.202,107.022 C457.856,106.643 460.644,104.937 465.225,104.794 C464.492,105.676 463.933,107 464.489,108.843 C464.491,108.852 464.495,108.861 464.498,108.871 C460.015,109.422 455.028,109.72 450.153,109.377 C448.612,109.268 447.083,109.096 445.584,108.847 C445.629,108.913 445.667,108.984 445.699,109.059 Z" />
            <path d="M439.797,110.508 L437.264,108.076 C436.906,107.733 436.336,107.744 435.992,108.101 C435.648,108.458 435.659,109.025 436.016,109.369 L438.973,112.207 C439.144,112.37 439.368,112.457 439.597,112.457 C439.712,112.457 439.828,112.435 439.938,112.39 L444.938,110.341 C445.398,110.152 445.617,109.628 445.428,109.17 C445.239,108.712 444.714,108.493 444.255,108.681 L439.797,110.508 Z" />
            <path d="M485.646,109.573 C485.646,110.06 486.043,110.455 486.531,110.455 C487.018,110.455 487.415,110.06 487.415,109.573 C487.415,109.086 487.019,108.69 486.531,108.69 C486.043,108.69 485.646,109.086 485.646,109.573 Z" />
        </g>
        <g id="Black-S">
            <path d="M622.413,107.122 C623.375,106.92 624.357,106.883 625.332,107.011 L634.558,108.224 C634.444,108.715 634.459,109.289 634.671,109.921 C635.445,112.18 636.213,113.447 637.964,115.247 C638.591,115.8 639.159,115.976 639.668,115.946 L638.269,116.546 C638.044,116.642 637.939,116.905 638.036,117.13 C638.133,117.354 638.396,117.459 638.621,117.362 L640.912,116.379 L641.342,116.195 L644.533,120.108 C644.458,120.263 644.415,120.437 644.415,120.62 C644.415,121.275 644.947,121.805 645.603,121.805 C646.211,121.805 646.711,121.35 646.782,120.764 L685.148,110.291 C685.036,110.076 684.971,109.832 684.971,109.573 C684.971,109.082 685.199,108.646 685.555,108.361 C685.345,107.149 685.233,106.102 685.174,105.284 C683.867,105.711 678.778,107.313 672.123,108.616 C669.629,109.104 667.194,109.495 664.825,109.792 C665.66,111.851 666.973,113.318 667.796,114.097 L650.528,118.811 C649.79,116.812 647.863,115.387 645.603,115.387 C644.692,115.387 643.835,115.619 643.088,116.026 L643.814,116.916 C644.355,116.655 644.962,116.508 645.603,116.508 C647.342,116.508 648.831,117.587 649.437,119.109 L646.544,119.899 C646.327,119.617 645.987,119.436 645.603,119.436 C645.505,119.436 645.409,119.449 645.318,119.471 L642.308,115.78 L642.737,115.596 L644.488,114.845 C644.713,114.748 644.818,114.486 644.721,114.261 C644.705,114.224 644.683,114.192 644.659,114.162 L647.393,112.97 L655.031,113.501 C655.805,113.555 656.476,112.973 656.531,112.201 C656.585,111.429 656.001,110.759 655.227,110.705 L647.244,110.15 C647.018,110.134 646.791,110.173 646.583,110.264 L641.009,112.694 C640.918,112.591 640.829,112.485 640.741,112.376 L640.049,112.66 C639.905,112.719 639.753,112.749 639.597,112.749 C639.287,112.749 638.993,112.631 638.77,112.417 L635.814,109.579 C635.34,109.125 635.326,108.371 635.781,107.899 C636.008,107.664 636.313,107.534 636.64,107.534 C636.95,107.534 637.243,107.652 637.466,107.866 L638.802,109.148 C638.736,109.015 638.672,108.884 638.609,108.757 L642.162,109.224 L642.789,108.967 L638.431,108.394 C638.385,108.299 638.339,108.205 638.294,108.115 C637.868,107.034 636.718,106.231 635.811,106.624 C635.333,106.832 634.888,107.279 634.656,107.898 L625.376,106.678 C624.363,106.544 623.343,106.583 622.344,106.793 L621,107.075 L621.069,107.405 L622.413,107.122 Z M672.475,111.572 L673.037,111.545 C673.056,111.927 673.061,112.3 673.055,112.662 L672.487,112.817 C672.499,112.415 672.497,112 672.475,111.572 Z M646.229,120.62 C646.229,120.965 645.948,121.245 645.603,121.245 C645.258,121.245 644.977,120.965 644.977,120.62 C644.977,120.276 645.258,119.996 645.603,119.996 C645.948,119.996 646.229,120.276 646.229,120.62 Z M643.795,118.084 C643.933,118.084 644.046,118.196 644.046,118.334 C644.046,118.472 643.933,118.584 643.795,118.584 C643.657,118.584 643.544,118.472 643.544,118.334 C643.544,118.196 643.657,118.084 643.795,118.084 Z" />
            <path d="M685.399,110.641 L672.976,114.032 C672.824,115.601 672.485,116.865 672.222,117.661 L672.572,117.971 C672.579,117.977 672.586,117.983 672.594,117.99 C672.594,117.99 672.594,117.99 672.594,117.99 C672.594,117.99 672.594,117.99 672.594,117.99 C672.615,118.008 672.636,118.024 672.658,118.04 L675.664,120.274 L677.866,124.253 C678.038,124.564 678.348,124.775 678.701,124.822 L680.132,125.013 C680.182,125.02 680.233,125.023 680.282,125.023 C680.837,125.023 681.319,124.614 681.395,124.051 C681.477,123.437 681.045,122.873 680.43,122.791 L679.561,122.675 L677.515,118.978 C677.438,118.838 677.331,118.717 677.202,118.621 L674.418,116.552 L674.311,114.376 L680.388,115.764 C682.449,116.229 685.429,116.588 688.13,116.651 C687.222,114.692 686.586,112.795 686.141,111.077 C685.853,111.003 685.597,110.85 685.399,110.641 Z" />
            <path d="M671.753,117.246 L671.758,117.251 C671.984,116.52 672.248,115.463 672.391,114.192 L668.48,115.259 L668.641,117.083 C668.643,117.102 668.646,117.12 668.649,117.139 L666.652,118.621 C666.381,118.821 666.216,119.132 666.2,119.468 C666.184,119.804 666.32,120.129 666.571,120.353 L671.017,124.346 C671.228,124.536 671.497,124.634 671.769,124.634 C671.955,124.634 672.141,124.588 672.311,124.495 L673.175,124.02 C673.719,123.721 673.917,123.04 673.617,122.497 C673.317,121.955 672.634,121.757 672.09,122.056 L671.927,122.146 L669.095,119.603 L671.318,117.953 C671.482,117.831 671.608,117.668 671.685,117.483 C671.702,117.43 671.719,117.375 671.737,117.318 C671.743,117.294 671.749,117.27 671.753,117.246 Z" />
            <path d="M708.105,105.073 C708.562,104.881 709.149,103.484 708.966,102.812 C708.903,102.583 708.304,102.102 707.542,101.568 C707.334,102.349 706.93,103.857 706.618,104.966 C707.322,105.08 707.929,105.146 708.105,105.073 Z" />
            <path d="M699.243,103.043 L706.84,102.453 C706.966,101.983 707.076,101.573 707.149,101.297 C705.729,100.335 703.997,99.311 703.997,99.311 C703.997,99.311 703.442,98.943 702.778,98.533 C701.231,99.462 699.711,102.16 699.243,103.043 Z M703.747,100.199 C704.018,100.199 704.238,100.419 704.238,100.69 C704.238,100.961 704.018,101.181 703.747,101.181 C703.475,101.181 703.255,100.961 703.255,100.69 C703.255,100.419 703.475,100.199 703.747,100.199 Z" />
            <path d="M690.455,104.176 C691.631,105.391 693.514,107.074 696.188,108.717 C696.194,108.698 696.2,108.678 696.206,108.66 L701.219,104.72 C701.584,104.427 703.399,104.365 703.854,104.44 C704.098,104.48 705.163,104.712 706.172,104.89 C706.341,104.294 706.537,103.574 706.716,102.912 L690.455,104.176 Z" />
            <path d="M698.715,103.084 C698.93,102.656 700.55,99.513 702.354,98.274 C702.052,98.093 701.747,97.917 701.476,97.772 C701.691,97.318 701.947,96.818 702.249,96.283 C701.787,96.497 701.252,96.943 700.742,97.444 C700.69,97.431 700.647,97.424 700.616,97.427 C700.346,97.452 700.022,97.484 699.741,97.507 C699.089,96.842 698.408,96.363 697.942,96.158 C697.803,96.097 697.742,96.274 697.854,96.407 C698.279,96.907 698.558,97.372 698.742,97.772 C698.687,97.809 698.63,97.851 698.572,97.894 C697.964,97.302 697.346,96.876 696.913,96.686 C696.774,96.625 696.713,96.802 696.825,96.935 C697.069,97.221 697.264,97.497 697.422,97.755 C696.299,97.348 695.159,97.305 694.63,97.539 C695.424,97.927 695.885,98.332 696.148,98.696 C694.938,98.419 693.742,98.537 693.236,98.854 C694.014,99.105 694.511,99.41 694.829,99.71 C693.472,99.281 692.025,99.385 691.453,99.742 C692.325,100.024 692.844,100.373 693.153,100.707 L692.747,100.495 C692.747,100.495 691.275,99.615 689.743,100.475 C690.14,100.633 690.498,100.811 690.817,100.993 C689.398,100.74 687.953,101.045 687.431,101.483 C688.883,101.737 689.459,102.293 689.686,102.72 C689.544,102.759 689.403,102.797 689.263,102.835 C689.447,103.065 689.712,103.379 690.059,103.757 L698.715,103.084 Z" />
            <path d="M686.467,104.036 L689.205,103.823 C688.907,103.481 688.692,103.209 688.557,103.03 C687.68,103.272 686.923,103.489 686.46,103.645 C686.461,103.745 686.462,103.876 686.467,104.036 Z" />
            <path d="M689.581,104.244 L686.484,104.485 C686.523,105.3 686.625,106.541 686.884,108.059 C687.575,108.219 688.09,108.835 688.09,109.573 C688.09,110.077 687.848,110.524 687.475,110.809 C687.943,112.611 688.627,114.612 689.624,116.654 C689.772,116.651 689.918,116.646 690.062,116.64 L691.186,120.191 L687.749,119.788 L687.725,119.755 C687.359,119.254 686.656,119.144 686.154,119.508 C685.652,119.872 685.541,120.573 685.906,121.074 L686.22,121.503 C686.404,121.756 686.686,121.921 686.997,121.957 L692.65,122.621 C692.653,122.621 692.657,122.621 692.66,122.622 C692.7,122.626 692.74,122.629 692.781,122.629 C692.815,122.629 692.85,122.627 692.885,122.624 C692.892,122.623 692.899,122.622 692.907,122.621 C692.933,122.618 692.959,122.614 692.986,122.609 C692.995,122.608 693.005,122.606 693.014,122.604 C693.04,122.598 693.066,122.592 693.091,122.584 C693.099,122.582 693.106,122.581 693.114,122.578 C693.116,122.578 693.118,122.577 693.119,122.577 C693.133,122.573 693.145,122.567 693.159,122.562 C693.179,122.555 693.2,122.548 693.22,122.54 C693.238,122.532 693.256,122.522 693.274,122.514 C693.289,122.506 693.304,122.5 693.319,122.492 C693.34,122.48 693.36,122.468 693.38,122.455 C693.391,122.448 693.402,122.442 693.413,122.435 C693.434,122.42 693.455,122.404 693.476,122.388 C693.484,122.381 693.493,122.375 693.501,122.368 C693.522,122.351 693.543,122.332 693.563,122.312 C693.568,122.307 693.575,122.302 693.58,122.296 C693.581,122.295 693.582,122.294 693.583,122.293 C693.612,122.264 693.639,122.233 693.664,122.201 C693.668,122.197 693.671,122.191 693.675,122.187 C693.695,122.16 693.714,122.133 693.732,122.105 C693.739,122.093 693.746,122.081 693.753,122.069 C693.766,122.047 693.778,122.024 693.789,122.001 C693.796,121.988 693.802,121.974 693.808,121.96 C693.819,121.937 693.828,121.914 693.837,121.89 C693.841,121.877 693.846,121.863 693.851,121.849 C693.859,121.823 693.866,121.796 693.873,121.769 C693.876,121.758 693.879,121.747 693.881,121.736 C693.889,121.699 693.895,121.662 693.899,121.625 C693.899,121.623 693.899,121.621 693.9,121.619 C693.904,121.578 693.906,121.536 693.905,121.495 C693.905,121.49 693.904,121.485 693.904,121.48 C693.903,121.445 693.901,121.41 693.897,121.375 C693.896,121.371 693.897,121.368 693.896,121.364 L693.266,116.489 L696.75,117.433 L696.05,123.275 L695.586,123.628 C695.092,124.004 694.998,124.707 695.374,125.2 C695.596,125.489 695.93,125.641 696.269,125.641 C696.507,125.641 696.746,125.566 696.95,125.411 L697.792,124.77 C698.033,124.586 698.19,124.313 698.226,124.012 L699.098,116.738 C699.098,116.731 699.098,116.724 699.099,116.718 C699.101,116.698 699.102,116.679 699.103,116.659 C699.104,116.643 699.105,116.627 699.105,116.611 C699.105,116.592 699.104,116.574 699.104,116.556 C699.103,116.538 699.102,116.52 699.1,116.503 C699.098,116.486 699.097,116.47 699.095,116.454 C699.092,116.434 699.088,116.414 699.085,116.395 C699.082,116.381 699.079,116.367 699.076,116.353 C699.071,116.331 699.065,116.31 699.059,116.289 C699.055,116.277 699.052,116.265 699.048,116.254 C699.041,116.231 699.032,116.208 699.023,116.186 C699.019,116.176 699.016,116.166 699.011,116.157 C699,116.131 698.988,116.107 698.975,116.082 C698.972,116.076 698.969,116.07 698.966,116.063 C698.949,116.034 698.931,116.004 698.912,115.976 C698.905,115.965 698.896,115.955 698.888,115.944 C698.876,115.927 698.864,115.91 698.851,115.894 C698.84,115.882 698.829,115.87 698.818,115.857 C698.806,115.844 698.794,115.83 698.781,115.818 C698.77,115.806 698.757,115.794 698.745,115.783 C698.731,115.771 698.718,115.758 698.704,115.747 C698.692,115.736 698.679,115.726 698.666,115.716 C698.65,115.704 698.634,115.693 698.618,115.682 C698.606,115.673 698.593,115.665 698.58,115.657 C698.562,115.645 698.543,115.634 698.524,115.624 C698.512,115.617 698.5,115.611 698.488,115.605 C698.466,115.594 698.444,115.584 698.422,115.574 C698.414,115.571 698.406,115.567 698.397,115.563 L694.538,114.029 C694.923,112.816 695.573,110.697 695.982,109.381 C692.838,107.475 690.758,105.525 689.581,104.244 Z" />
            <path d="M649.726,120.621 C649.726,122.888 647.877,124.733 645.603,124.733 C643.329,124.733 641.48,122.888 641.48,120.621 C641.48,119.68 641.798,118.814 642.332,118.12 L641.607,117.23 C640.827,118.144 640.355,119.327 640.355,120.62 C640.355,123.511 642.705,125.854 645.603,125.854 C648.501,125.854 650.851,123.511 650.851,120.62 C650.851,120.438 650.841,120.257 650.823,120.079 L649.719,120.38 C649.723,120.46 649.726,120.54 649.726,120.621 Z" />
            <path d="M636.18,103.28 L636.108,103.855 C636.087,103.96 635.9,104.799 635.462,105.037 C635.323,105.112 635.171,105.12 635.02,105.062 C634.692,104.935 634.307,105.004 634.038,105.085 C634.503,105.629 635.194,105.975 635.967,105.974 C637.364,105.973 638.495,104.842 638.494,103.449 C638.494,103.2 638.457,102.959 638.389,102.732 L636.573,102.9 C636.371,102.919 636.205,103.079 636.18,103.28 Z" />
            <path d="M638.568,101.853 C638.153,100.698 637.047,99.895 635.769,99.895 C635.716,99.895 635.663,99.896 635.609,99.899 C634.209,99.972 633.044,101.029 632.839,102.412 C632.701,103.343 633.011,104.283 633.67,104.944 C633.902,104.844 634.555,104.605 635.114,104.822 C635.195,104.853 635.266,104.849 635.338,104.81 C635.621,104.657 635.806,104.038 635.853,103.812 L635.924,103.248 C635.964,102.928 636.227,102.673 636.549,102.643 L638.066,102.503 C638.38,102.485 638.702,102.454 638.971,102.414 C639.348,102.359 639.619,102.287 639.614,102.211 C639.602,102.042 639.293,101.915 638.848,101.87 C638.76,101.861 638.666,101.855 638.568,101.853 Z M637.336,101.143 C637.471,101.057 637.687,101.152 637.818,101.356 C637.949,101.561 637.946,101.796 637.811,101.882 C637.676,101.969 637.46,101.873 637.329,101.669 C637.198,101.465 637.201,101.229 637.336,101.143 Z" />
            <path d="M645.699,109.059 C645.75,109.185 645.779,109.317 645.786,109.449 C648.616,109.899 651.547,110.085 654.453,110.085 C660.907,110.085 667.236,109.172 672.047,108.23 C678.866,106.896 684.029,105.248 685.147,104.88 C685.124,104.469 685.114,104.133 685.111,103.883 C682.494,104.145 679.098,104.323 677.399,103.657 C674.331,102.455 674.376,102.509 670.107,102.761 C668.72,102.842 667.57,102.997 667.013,103.387 C666.992,103.402 666.86,103.466 666.666,103.582 C665.19,102.756 662.919,102.271 661.139,102.683 C658.997,103.178 654.146,105.057 652.399,104.766 C650.652,104.476 654.206,107.48 656.202,107.022 C657.856,106.643 660.644,104.937 665.225,104.794 C664.492,105.676 663.933,107 664.489,108.843 C664.491,108.852 664.495,108.861 664.498,108.871 C660.015,109.422 655.028,109.72 650.153,109.377 C648.612,109.268 647.083,109.096 645.584,108.847 C645.629,108.913 645.667,108.984 645.699,109.059 Z" />
            <path d="M639.797,110.508 L637.264,108.076 C636.906,107.733 636.336,107.744 635.992,108.101 C635.648,108.458 635.659,109.025 636.016,109.369 L638.973,112.207 C639.144,112.37 639.368,112.457 639.597,112.457 C639.712,112.457 639.828,112.435 639.938,112.39 L644.938,110.341 C645.398,110.152 645.617,109.628 645.428,109.17 C645.239,108.712 644.714,108.493 644.255,108.681 L639.797,110.508 Z" />
            <path d="M685.646,109.573 C685.646,110.06 686.043,110.455 686.531,110.455 C687.018,110.455 687.415,110.06 687.415,109.573 C687.415,109.086 687.018,108.69 686.531,108.69 C686.043,108.69 685.646,109.086 685.646,109.573 Z" />
        </g>
    </g>
</svg>