<?xml version="1.0" encoding="UTF-8"?>
<svg height="600" width="800" xmlns="http://www.w3.org/2000/svg" xmlns:xlink="http://www.w3.org/1999/xlink">
    <g id="Notes" font-family="'LucidaGrande', 'Lucida Grande', sans-serif" font-size="13">
        <rect fill="white" height="600.0" width="800.0" x="0.0" y="0.0" />
        <g font-size="13">
            <text x="18.0" y="176.0">Small</text>
            <text x="18.0" y="376.0">Medium</text>
            <text x="18.0" y="576.0">Large</text>
        </g>
        <g font-size="9">
            <text x="250.0" y="30.0">Ultralight</text>
            <text x="450.0" y="30.0">Regular</text>
            <text x="650.0" y="30.0">Black</text>
            <text id="template-version" fill="#505050" text-anchor="end" x="785.0" y="575.0">Template v.3.0</text>
            <a href="https://wangchujiang.com/#/app">
                <text fill="#505050" text-anchor="end" x="785.0" y="590.0">https://wangchujiang.com/#/app</text>
            </a>
        </g>
    </g>
    <g id="Guides" stroke="rgb(39, 170, 225)" stroke-width="0.5">
        <path id="Capline-S" d="M18,76 l800,0" />
        <path id="H-reference" d="M85,145.755 L87.685,145.755 L113.369,79.287 L114.052,79.287 L114.052,76 L112.148,76 L85,145.755 Z M95.693,121.536 L130.996,121.536 L130.263,119.313 L96.474,119.313 L95.693,121.536 Z M139.15,145.755 L141.787,145.755 L114.638,76 L113.466,76 L113.466,79.287 L139.15,145.755 Z" stroke="none" />
        <path id="Baseline-S" d="M18,146 l800,0" />
        <path id="left-margin-Ultralight-S" d="M211,56 l0,110" />
        <path id="right-margin-Ultralight-S" d="M319,56 l0,110" />
        <path id="left-margin-Regular-S" d="M411,56 l0,110" />
        <path id="right-margin-Regular-S" d="M519,56 l0,110" />
        <path id="left-margin-Black-S" d="M611,56 l0,110" />
        <path id="right-margin-Black-S" d="M719,56 l0,110" />
        <path id="Capline-M" d="M18,276 l800,0" />
        <path id="Baseline-M" d="M18,346 l800,0" />
        <path id="Capline-L" d="M18,476 l800,0" />
        <path id="Baseline-L" d="M18,546 l800,0" />
    </g>
    <g id="Symbols">
        <g id="Ultralight-S">
            <path d="M308.89,94.365 C308.722,93.919 308.375,93.564 307.934,93.386 L300.512,90.392 C300.051,87.994 298.229,86.074 295.886,85.468 L295.486,80.857 C295.427,80.182 294.974,79.606 294.332,79.389 C293.69,79.173 292.981,79.358 292.526,79.859 L290.621,81.961 L289.444,77.84 C289.241,77.13 288.603,76.631 287.865,76.606 C287.126,76.581 286.456,77.033 286.204,77.728 L277.407,101.995 L244.851,103.515 C244.837,103.516 244.823,103.517 244.81,103.517 C238.127,103.919 231.799,100.343 228.688,94.408 C228.251,93.575 227.221,93.253 226.388,93.69 C225.554,94.127 225.233,95.157 225.67,95.99 C228.434,101.264 233.316,104.985 238.921,106.364 C238.722,106.54 238.522,106.725 238.321,106.923 C236.183,109.032 233.631,112.887 233.26,119.435 L225.884,122.674 C225.453,122.863 225.12,123.222 224.963,123.666 L221.098,134.594 C220.824,135.369 221.142,136.229 221.854,136.639 L223.71,137.707 C223.971,137.858 224.265,137.934 224.56,137.934 C224.759,137.934 224.958,137.899 225.149,137.829 C225.623,137.654 225.995,137.278 226.165,136.802 L228.91,129.097 L235.532,128.549 L233.519,131.282 C233.24,131.661 233.131,132.139 233.216,132.601 L235.318,144.001 C235.467,144.809 236.172,145.395 236.994,145.395 L239.135,145.395 C239.64,145.395 240.12,145.171 240.443,144.783 C240.767,144.395 240.902,143.883 240.811,143.387 L239.346,135.34 L253.564,125.502 C253.608,125.471 253.524,125.536 253.564,125.502 C254.911,124.371 255.889,123.125 256.588,121.844 C263.747,123.101 273.749,124.887 280.199,125.932 C280.285,125.972 280.106,125.907 280.199,125.932 L293.563,144.205 C293.894,144.656 294.41,144.903 294.939,144.903 C295.203,144.903 295.47,144.842 295.718,144.714 L297.285,143.907 C297.686,143.7 297.989,143.342 298.127,142.912 C298.265,142.482 298.226,142.014 298.019,141.612 L291.09,128.156 L298.193,129.602 L298.021,132.061 C297.978,132.686 298.281,133.285 298.812,133.62 L299.857,134.28 C300.132,134.453 300.448,134.543 300.766,134.543 C300.941,134.543 301.116,134.516 301.286,134.462 C301.765,134.308 302.152,133.95 302.343,133.484 L304.784,127.516 C304.963,127.078 304.953,126.586 304.755,126.157 C304.557,125.728 304.19,125.401 303.741,125.253 L290.912,120.838 C290.924,120.781 294.739,103.174 294.739,103.174 C295.451,103.293 296.17,103.355 296.895,103.355 C301.884,103.355 306.453,100.434 308.818,95.732 C309.032,95.306 309.058,94.811 308.89,94.365 Z" />
        </g>
        <g id="Regular-S">
            <path d="M508.89,94.365 C508.722,93.919 508.375,93.564 507.934,93.386 L500.512,90.392 C500.051,87.994 498.229,86.074 495.886,85.468 L495.486,80.857 C495.427,80.182 494.974,79.606 494.332,79.389 C493.69,79.173 492.981,79.358 492.526,79.859 L490.621,81.961 L489.444,77.84 C489.241,77.13 488.603,76.631 487.865,76.606 C487.126,76.581 486.456,77.033 486.204,77.728 L477.407,101.995 L444.851,103.515 C444.837,103.516 444.823,103.517 444.81,103.517 C438.127,103.919 431.799,100.343 428.688,94.408 C428.251,93.575 427.221,93.253 426.388,93.69 C425.554,94.127 425.233,95.157 425.67,95.99 C428.434,101.264 433.316,104.985 438.921,106.364 C438.722,106.54 438.522,106.725 438.321,106.923 C436.183,109.032 433.631,112.887 433.26,119.435 L425.884,122.674 C425.453,122.863 425.12,123.222 424.963,123.666 L421.098,134.594 C420.824,135.369 421.142,136.229 421.854,136.639 L423.71,137.707 C423.971,137.858 424.265,137.934 424.56,137.934 C424.759,137.934 424.958,137.899 425.149,137.829 C425.623,137.654 425.995,137.278 426.165,136.802 L428.91,129.097 L435.532,128.549 L433.519,131.282 C433.24,131.661 433.131,132.139 433.216,132.601 L435.318,144.001 C435.467,144.809 436.172,145.395 436.994,145.395 L439.135,145.395 C439.64,145.395 440.12,145.171 440.443,144.783 C440.767,144.395 440.902,143.883 440.811,143.387 L439.346,135.34 L453.564,125.502 C453.608,125.471 453.524,125.536 453.564,125.502 C454.911,124.371 455.889,123.125 456.588,121.844 C463.747,123.101 473.749,124.887 480.199,125.932 C480.285,125.972 480.106,125.907 480.199,125.932 L493.563,144.205 C493.894,144.656 494.41,144.903 494.939,144.903 C495.203,144.903 495.47,144.842 495.718,144.714 L497.285,143.907 C497.686,143.7 497.989,143.342 498.127,142.912 C498.265,142.482 498.226,142.014 498.019,141.612 L491.09,128.156 L498.193,129.602 L498.021,132.061 C497.978,132.686 498.282,133.285 498.812,133.62 L499.857,134.28 C500.132,134.453 500.448,134.543 500.766,134.543 C500.941,134.543 501.116,134.516 501.286,134.462 C501.765,134.308 502.152,133.95 502.343,133.484 L504.784,127.516 C504.963,127.078 504.953,126.586 504.755,126.157 C504.557,125.728 504.19,125.401 503.741,125.253 L490.912,120.838 C490.924,120.781 494.739,103.174 494.739,103.174 C495.451,103.293 496.17,103.355 496.895,103.355 C501.884,103.355 506.453,100.434 508.818,95.732 C509.032,95.306 509.058,94.811 508.89,94.365 Z" />
        </g>
        <g id="Black-S">
            <path d="M708.89,94.365 C708.722,93.919 708.375,93.564 707.934,93.386 L700.512,90.392 C700.051,87.994 698.229,86.074 695.886,85.468 L695.486,80.857 C695.427,80.182 694.974,79.606 694.332,79.389 C693.69,79.173 692.981,79.358 692.526,79.859 L690.621,81.961 L689.444,77.84 C689.241,77.13 688.603,76.631 687.865,76.606 C687.126,76.581 686.456,77.033 686.204,77.728 L677.407,101.995 L644.851,103.515 C644.837,103.516 644.823,103.517 644.81,103.517 C638.127,103.919 631.799,100.343 628.688,94.408 C628.251,93.575 627.221,93.253 626.388,93.69 C625.554,94.127 625.233,95.157 625.67,95.99 C628.434,101.264 633.316,104.985 638.921,106.364 C638.722,106.54 638.522,106.725 638.321,106.923 C636.183,109.032 633.631,112.887 633.26,119.435 L625.884,122.674 C625.453,122.863 625.12,123.222 624.963,123.666 L621.098,134.594 C620.824,135.369 621.142,136.229 621.854,136.639 L623.71,137.707 C623.971,137.858 624.265,137.934 624.56,137.934 C624.759,137.934 624.958,137.899 625.149,137.829 C625.623,137.654 625.995,137.278 626.165,136.802 L628.91,129.097 L635.532,128.549 L633.519,131.282 C633.24,131.661 633.131,132.139 633.216,132.601 L635.318,144.001 C635.467,144.809 636.172,145.395 636.994,145.395 L639.135,145.395 C639.64,145.395 640.12,145.171 640.443,144.783 C640.767,144.395 640.902,143.883 640.811,143.387 L639.346,135.34 L653.564,125.502 C653.608,125.471 653.524,125.536 653.564,125.502 C654.911,124.371 655.889,123.125 656.588,121.844 C663.747,123.101 673.749,124.887 680.199,125.932 C680.285,125.972 680.106,125.907 680.199,125.932 L693.563,144.205 C693.894,144.656 694.411,144.903 694.939,144.903 C695.203,144.903 695.47,144.842 695.718,144.714 L697.285,143.907 C697.686,143.7 697.989,143.342 698.127,142.912 C698.265,142.482 698.226,142.014 698.019,141.612 L691.09,128.156 L698.193,129.602 L698.021,132.061 C697.978,132.686 698.281,133.285 698.812,133.62 L699.857,134.28 C700.132,134.453 700.448,134.543 700.766,134.543 C700.941,134.543 701.116,134.516 701.286,134.462 C701.765,134.308 702.152,133.95 702.343,133.484 L704.784,127.516 C704.963,127.078 704.953,126.586 704.755,126.157 C704.557,125.728 704.19,125.401 703.741,125.253 L690.912,120.838 C690.924,120.781 694.739,103.174 694.739,103.174 C695.451,103.293 696.17,103.355 696.895,103.355 C701.884,103.355 706.453,100.434 708.818,95.732 C709.032,95.306 709.058,94.811 708.89,94.365 Z" />
        </g>
    </g>
</svg>